<?xml version="1.0" encoding="utf-8"?>
<!-- Generator: Adobe Illustrator 19.0.0, SVG Export Plug-In . SVG Version: 6.00 Build 0)  -->
<svg version="1.1" id="layer" xmlns="http://www.w3.org/2000/svg" xmlns:xlink="http://www.w3.org/1999/xlink" x="0px" y="0px"
	 viewBox="-153 -46 652 652" style="enable-background:new -153 -46 652 652;" xml:space="preserve">
<style type="text/css">
	.st0{fill:#0E2050;}
	.st1{fill:#00ACA9;}
</style>
<path id="XMLID_38_" class="st0" d="M-8.7,264.5v32.8h-24v-23.1c0-10.3-3.5-14.7-14.3-14.7c-7.1,0-14.6,3.1-19.3,7.6v30.2h-24v-58.2
	h24v8.4c7.2-5,16.4-9,29-9C-23.7,238.6-8.7,242.8-8.7,264.5 M124.9,220.9h-24v18.3H88v19.5h12.9v38.8h48v-19.5h-24v-19.3h24v-19.5
	h-24V220.9z M81.5,272.2h-56c2,6.3,8.6,7.9,15.1,7.9c6.4,0,9.9-0.3,13.3-2.1H80c-3.8,14-16.4,20.8-39.4,20.8
	c-23.1,0-39.2-8.7-39.2-30.5c0-21.9,16.1-30.5,40.2-30.5C65.9,237.7,81.5,246.4,81.5,272.2 M56.4,259c-2.8-3.9-8.7-5.8-15-5.8
	c-6.3,0-12.2,1.8-14.7,5.8H56.4z M216,270.2c-4.5,4.3-11.7,7.3-18.5,7.3c-10.4,0-13.9-4.2-13.9-14.1v-24.3h-24v33.7
	c0,20.8,15.6,24.8,28.6,24.8c12.1,0,20.9-3.8,27.8-8.6v8.3h24l0-58.2h-24V270.2z M352.7,238.2c-14.2,0-22.6,4.5-28.4,11.2
	c-4.6-8.5-14.5-11.2-21.8-11.2c-14.2,0-21,5.8-26.2,10.7v-9.7h-24v58.2l24,0v-31.4c4.9-4.8,9.9-7.4,15.8-7.4
	c8.5,0,11.2,4.3,11.2,14.3v24.5h24l0-32c4.9-4.9,9.2-6.8,15.1-6.8c8.5,0,11.1,4.3,11.1,14.3v24.5h24v-35
	C377.5,242.3,362.9,238.2,352.7,238.2 M-102.5,208.9h-24v24h24V208.9z M-102.5,239.1h-24v58.2h24V239.1z"/>
<path id="XMLID_1_" class="st1" d="M-9.5,331.5c0,4.4-3.1,7.3-7.6,7.3h-10.5v5.3h-5.1v-19.8h15.6C-12.6,324.2-9.5,327-9.5,331.5
	 M-14.6,331.5c0-3-2.4-3-3.9-3h-9.1v6h9.1C-17,334.4-14.6,334.4-14.6,331.5 M-6.5,335.7c0-6.1,4.6-8.6,11.6-8.6
	c6.9,0,11.6,2.5,11.6,8.6c0,6.1-4.7,8.6-11.6,8.6C-1.9,344.3-6.5,341.8-6.5,335.7 M11.7,335.7c0-3.5-2.2-4.6-6.7-4.6
	c-4.5,0-6.7,1.1-6.7,4.6c0,3.5,2.2,4.6,6.7,4.6C9.5,340.2,11.7,339.1,11.7,335.7 M24.2,338.1c0,1.8,1.8,2.5,7.2,2.5
	c5.2,0,6.1-0.3,6.1-1.6c0-1.3-0.8-1.4-6.7-1.7c-7.3-0.4-10.9-1-10.9-5c0-4.4,5.1-5.2,11-5.2c6.3,0,10.9,0.8,10.9,5.4H37
	c0-1.4-1.8-1.7-6.3-1.7c-4.6,0-5.9,0.3-5.9,1.3c0,1,0.9,1.2,6.6,1.6c6.5,0.5,11,0.7,11,5.1c0,4.7-4.2,5.5-10.7,5.5
	c-6.4,0-12.4-0.8-12.4-6.1H24.2z M50.8,325.6H46v-4.2h4.8V325.6z M50.8,344H46v-16.7h4.8V344z M63.5,331.4v4.8c0,3.2,0.6,4,3.6,4
	c1.5,0,2.4,0,4.3-0.3v3.9c-1.6,0.3-3.5,0.4-5.7,0.4c-4.3,0-7.1-1.6-7.1-5.3v-7.6h-4.4v-4h4.4v-3.5l4.9-1.4v4.8h7.9v4H63.5z
	 M79.9,325.6H75v-4.2h4.8V325.6z M79.9,344H75v-16.7h4.8V344z M106.8,327.3L98.3,344h-6.9L83,327.3h5.4l6.5,13.3l6.5-13.3H106.8z
	 M125.5,338h4.8c-1.1,4.2-5.2,6.3-11.4,6.3c-6.3,0-11.3-2.5-11.3-8.6c0-6.1,4.8-8.6,11.6-8.6c6.3,0,11.4,2.2,11.4,9.8h-18
	c0.5,2.7,3.1,3.5,6.3,3.5C122.2,340.3,124.3,339.7,125.5,338 M112.8,333.7h12.7c-0.8-2.4-3.2-3-6.3-3
	C115.8,330.7,113.5,331.4,112.8,333.7 M171.9,321.3V344h-4.8v-2.6c-1.8,1.9-4.7,2.9-8.3,2.9c-5.4,0-9.9-2.2-9.9-8.6
	c0-6.4,4.6-8.6,9.9-8.6c3.6,0,6.5,1,8.3,2.9v-8.6H171.9z M167.1,335.7c0-3.3-2.4-4.6-6.7-4.6c-4.3,0-6.7,1.3-6.7,4.6
	c0,3.3,2.4,4.6,6.7,4.6C164.7,340.2,167.1,339,167.1,335.7 M180.7,325.6h-4.8v-4.2h4.8V325.6z M180.7,344h-4.8v-16.7h4.8V344z
	 M207.4,327.3v14c0,6.8-4.6,9.8-10.9,9.8c-4.8,0-8.8-0.9-10.4-1.3v-3.9c2,0.4,5.7,1.2,9.4,1.2c5,0,6.9-1.9,7.1-6.2
	c-1.7,1.9-4.5,3-8.4,3c-5.7,0-9.8-2.5-9.8-8.4c0-5.9,4.1-8.4,9.8-8.4c4,0,6.8,1.1,8.4,3v-2.7H207.4z M202.5,335.4
	c0-3.1-2.1-4.3-6.7-4.3c-4.6,0-6.7,1.3-6.7,4.3c0,3.1,2.2,4.3,6.7,4.3C200.4,339.8,202.5,338.5,202.5,335.4 M216.2,325.6h-4.8v-4.2
	h4.8V325.6z M216.2,344h-4.8v-16.7h4.8V344z M228.8,331.4v4.8c0,3.2,0.6,4,3.6,4c1.5,0,2.4,0,4.3-0.3v3.9c-1.6,0.3-3.5,0.4-5.7,0.4
	c-4.3,0-7.1-1.6-7.1-5.3v-7.6h-4.4v-4h4.4v-3.5l4.9-1.4v4.8h7.9v4H228.8z M262.6,335.6v8.4h-4.9v-2.1c-2.9,1.4-6.2,2.3-10.1,2.3
	c-4.7,0-7.6-1.5-7.6-5.3c0-4.3,4.8-5.7,10.1-5.7c2.9,0,5.5,0.5,7.7,1.2c0-3.2-4.1-3.4-6.3-3.4c-2.2,0-4.8,0.2-8.3,1.2l-1.7-3.5
	c3.4-1.1,6.7-1.7,10.2-1.7C258.6,327,262.5,329.3,262.6,335.6 M257.7,337.5c-1.7-0.5-4-1-7.1-1c-3.6,0-5.8,0.6-5.8,2.3
	c0,1.8,1.6,1.9,4.1,1.9c2.6,0,6.3-0.8,8.7-1.9V337.5z M271.4,344h-4.8v-22.7h4.8V344z M299.1,327.3h7v4h-7V344h-4.9v-12.6h-4.4v-4
	h4.4v-1.2c0-3.4,2-5,6.9-5c1.7,0,2.6,0,5,0.3v3.4c-1.1-0.1-2.2-0.1-3.5-0.1C299.9,324.6,299.2,325.2,299.1,327.3 M314.6,344h-4.8
	v-22.7h4.8V344z M318.1,335.7c0-6.1,4.6-8.6,11.6-8.6c6.9,0,11.6,2.5,11.6,8.6c0,6.1-4.7,8.6-11.6,8.6
	C322.8,344.3,318.1,341.8,318.1,335.7 M336.4,335.7c0-3.5-2.2-4.6-6.7-4.6c-4.5,0-6.7,1.1-6.7,4.6c0,3.5,2.2,4.6,6.7,4.6
	C334.1,340.2,336.4,339.1,336.4,335.7 M379.6,327.3l-7.5,16.7h-6.5l-4.9-11.6l-4.9,11.6h-6.5l-7.5-16.7h5.4l5.5,12.9l5.1-12.9h5.8
	l5.1,12.9l5.5-12.9H379.6z M425.5,225.4v24h24v24h24v-48H425.5z M425.5,273.4h-24v24h24V273.4z"/>
</svg>
