<?xml version="1.0" encoding="UTF-8" standalone="no"?>
<!-- Created with Inkscape (http://www.inkscape.org/) -->

<svg
   width="158.74998mm"
   height="37.623749mm"
   viewBox="0 0 158.74998 37.623749"
   version="1.1"
   id="svg219"
   xmlns:inkscape="http://www.inkscape.org/namespaces/inkscape"
   xmlns:sodipodi="http://sodipodi.sourceforge.net/DTD/sodipodi-0.dtd"
   xmlns="http://www.w3.org/2000/svg"
   xmlns:svg="http://www.w3.org/2000/svg">
  <sodipodi:namedview
     id="namedview221"
     pagecolor="#ffffff"
     bordercolor="#000000"
     borderopacity="0.25"
     inkscape:showpageshadow="2"
     inkscape:pageopacity="0.0"
     inkscape:pagecheckerboard="0"
     inkscape:deskcolor="#d1d1d1"
     inkscape:document-units="mm"
     showgrid="false" />
  <defs
     id="defs216" />
  <g
     inkscape:label="Capa 1"
     inkscape:groupmode="layer"
     id="layer1"
     transform="translate(7.7477152,-134.21005)">
    <path
       id="XMLID_38_"
       class="st0"
       d="m 23.420201,148.92088 v 8.67834 h -6.35 v -6.11188 c 0,-2.72521 -0.926042,-3.88937 -3.783542,-3.88937 -1.878541,0 -3.8629161,0.8202 -5.1064578,2.01083 v 7.99042 H 1.8302013 v -15.39875 h 6.3499999 v 2.2225 c 1.9049998,-1.32292 4.3391668,-2.38125 7.6729168,-2.38125 3.598333,0.0265 7.567083,1.1377 7.567083,6.87916 m 35.348333,-11.53583 h -6.35 v 4.84187 h -3.413125 v 5.15938 h 3.413125 v 10.26583 h 12.7 v -5.15937 h -6.35 v -5.10646 h 6.35 v -5.15938 h -6.35 z M 47.285617,150.95817 H 32.468951 c 0.529167,1.66688 2.275417,2.09021 3.995208,2.09021 1.693334,0 2.619375,-0.0794 3.518958,-0.55562 h 6.905625 c -1.005416,3.70416 -4.339166,5.50333 -10.424583,5.50333 -6.111875,0 -10.371666,-2.30187 -10.371666,-8.06979 0,-5.79438 4.259791,-8.06979 10.63625,-8.06979 6.429374,-0.0265 10.556874,2.27541 10.556874,9.10166 m -6.641041,-3.4925 c -0.740834,-1.03187 -2.301875,-1.53458 -3.96875,-1.53458 -1.666875,0 -3.227917,0.47625 -3.889375,1.53458 z m 42.227499,2.96334 c -1.190625,1.13771 -3.095625,1.93146 -4.894791,1.93146 -2.751667,0 -3.677709,-1.11125 -3.677709,-3.73063 v -6.42937 h -6.35 v 8.91645 c 0,5.50334 4.1275,6.56167 7.567084,6.56167 3.201458,0 5.529791,-1.00542 7.355416,-2.27542 v 2.19605 h 6.35 v -15.39875 h -6.35 z m 36.168545,-8.46667 c -3.75709,0 -5.97959,1.19063 -7.51417,2.96333 -1.21708,-2.24895 -3.83646,-2.96333 -5.76792,-2.96333 -3.75708,0 -5.55625,1.53458 -6.93208,2.83104 v -2.56646 h -6.35 v 15.39875 h 6.35 v -8.30791 c 1.29646,-1.27 2.61938,-1.95792 4.18042,-1.95792 2.24895,0 2.96333,1.13771 2.96333,3.78354 v 6.48229 h 6.35 v -8.46666 c 1.29646,-1.29646 2.43417,-1.79917 3.99521,-1.79917 2.24896,0 2.93687,1.13771 2.93687,3.78354 v 6.48229 h 6.35 v -9.26041 c 0,-5.31813 -3.86291,-6.40292 -6.56166,-6.40292 M -1.3977153,134.21005 h -6.3499999 v 6.35 h 6.3499999 z m 0,7.99042 h -6.3499999 v 15.39875 h 6.3499999 z"
       inkscape:export-filename="XMLID_38_.svg"
       inkscape:export-xdpi="96"
       inkscape:export-ydpi="96"
       style="fill:#0e2050;stroke-width:0.264583" />
    <path
       id="XMLID_1_"
       class="st1"
       d="m 23.208534,166.64797 c 0,1.16416 -0.820208,1.93145 -2.010833,1.93145 h -2.778125 v 1.4023 h -1.349375 v -5.23875 h 4.1275 c 1.190625,-0.0265 2.010833,0.71437 2.010833,1.905 m -1.349375,0 c 0,-0.79375 -0.635,-0.79375 -1.031875,-0.79375 h -2.407708 v 1.5875 h 2.407708 c 0.396875,-0.0265 1.031875,-0.0265 1.031875,-0.79375 m 2.143125,1.11125 c 0,-1.61396 1.217084,-2.27542 3.069167,-2.27542 1.825625,0 3.069167,0.66146 3.069167,2.27542 0,1.61395 -1.243542,2.27541 -3.069167,2.27541 -1.852083,0 -3.069167,-0.66146 -3.069167,-2.27541 m 4.815417,0 c 0,-0.92605 -0.582083,-1.21709 -1.772708,-1.21709 -1.190625,0 -1.772709,0.29104 -1.772709,1.21709 0,0.92604 0.582084,1.21708 1.772709,1.21708 1.190625,-0.0265 1.772708,-0.3175 1.772708,-1.21708 m 3.307292,0.635 c 0,0.47625 0.47625,0.66145 1.905,0.66145 1.375833,0 1.613958,-0.0794 1.613958,-0.42333 0,-0.34396 -0.211667,-0.37042 -1.772708,-0.44979 -1.931459,-0.10583 -2.883959,-0.26458 -2.883959,-1.32292 0,-1.16416 1.349375,-1.37583 2.910417,-1.37583 1.666875,0 2.883958,0.21167 2.883958,1.42875 h -1.27 c 0,-0.37042 -0.47625,-0.44979 -1.666875,-0.44979 -1.217083,0 -1.561041,0.0794 -1.561041,0.34396 0,0.26458 0.238125,0.3175 1.74625,0.42333 1.719791,0.13229 2.910416,0.18521 2.910416,1.34937 0,1.24355 -1.11125,1.45521 -2.831041,1.45521 -1.693334,0 -3.280834,-0.21166 -3.280834,-1.61396 h 1.296459 z m 7.037916,-3.3073 h -1.27 v -1.11125 h 1.27 z m 0,4.86834 h -1.27 v -4.41854 h 1.27 z m 3.360208,-3.33375 v 1.27 c 0,0.84666 0.15875,1.05833 0.9525,1.05833 0.396875,0 0.635,0 1.137709,-0.0794 v 1.03187 c -0.423334,0.0794 -0.926042,0.10583 -1.508125,0.10583 -1.137709,0 -1.878542,-0.42333 -1.878542,-1.40229 v -2.01083 h -1.164167 v -1.05833 h 1.164167 v -0.92605 l 1.296458,-0.37041 v 1.27 h 2.090209 v 1.05833 h -2.090209 z m 4.339167,-1.53459 h -1.296458 v -1.11125 h 1.27 v 1.11125 z m 0,4.86834 h -1.296458 v -4.41854 h 1.27 v 4.41854 z m 7.117292,-4.41854 -2.248959,4.41854 h -1.825625 l -2.2225,-4.41854 h 1.42875 l 1.719792,3.51895 1.719792,-3.51895 z m 4.947708,2.83104 h 1.27 c -0.291042,1.11125 -1.375833,1.66687 -3.01625,1.66687 -1.666875,0 -2.989792,-0.66146 -2.989792,-2.27541 0,-1.61396 1.27,-2.27542 3.069167,-2.27542 1.666875,0 3.01625,0.58208 3.01625,2.59292 h -4.7625 c 0.132292,0.71437 0.820208,0.92604 1.666875,0.92604 0.873125,-0.0265 1.42875,-0.18521 1.74625,-0.635 m -3.360208,-1.13771 h 3.360208 c -0.211667,-0.635 -0.846667,-0.79375 -1.666875,-0.79375 -0.899583,0 -1.508125,0.18521 -1.693333,0.79375 m 15.636874,-3.28083 v 6.00604 h -1.27 v -0.68792 c -0.47625,0.50271 -1.243541,0.76729 -2.196041,0.76729 -1.42875,0 -2.619375,-0.58208 -2.619375,-2.27541 0,-1.69334 1.217083,-2.27542 2.619375,-2.27542 0.9525,0 1.719791,0.26458 2.196041,0.76729 v -2.27542 h 1.27 z m -1.27,3.81 c 0,-0.87313 -0.635,-1.21709 -1.772708,-1.21709 -1.137708,0 -1.772708,0.34396 -1.772708,1.21709 0,0.87312 0.635,1.21708 1.772708,1.21708 1.137708,-0.0265 1.772708,-0.34396 1.772708,-1.21708 m 3.598334,-2.6723 h -1.27 v -1.11125 h 1.27 z m 0,4.86834 h -1.27 v -4.41854 h 1.27 z m 7.064375,-4.41854 v 3.70416 c 0,1.79917 -1.217084,2.59292 -2.883959,2.59292 -1.27,0 -2.328333,-0.23813 -2.751666,-0.34396 v -1.03187 c 0.529166,0.10583 1.508125,0.3175 2.487083,0.3175 1.322917,0 1.825625,-0.50271 1.878542,-1.64042 -0.449792,0.50271 -1.190625,0.79375 -2.2225,0.79375 -1.508125,0 -2.592917,-0.66146 -2.592917,-2.2225 0,-1.56104 1.084792,-2.2225 2.592917,-2.2225 1.058333,0 1.799166,0.29104 2.2225,0.79375 v -0.71438 h 1.27 z m -1.296459,2.14312 c 0,-0.82021 -0.555625,-1.13771 -1.772708,-1.13771 -1.217083,0 -1.772708,0.34396 -1.772708,1.13771 0,0.82021 0.582083,1.13771 1.772708,1.13771 1.217083,0.0265 1.772708,-0.3175 1.772708,-1.13771 m 3.624792,-2.59292 h -1.27 v -1.11125 h 1.27 z m 0,4.86834 h -1.27 v -4.41854 h 1.27 z m 3.33375,-3.33375 v 1.27 c 0,0.84666 0.15875,1.05833 0.9525,1.05833 0.396875,0 0.635,0 1.137708,-0.0794 v 1.03187 c -0.423333,0.0794 -0.926041,0.10583 -1.508125,0.10583 -1.137708,0 -1.878541,-0.42333 -1.878541,-1.40229 v -2.01083 h -1.164167 v -1.05833 h 1.164167 v -0.92605 l 1.296458,-0.37041 v 1.27 h 2.090208 v 1.05833 h -2.090208 z m 8.942916,1.11125 v 2.2225 H 93.9052 v -0.55563 c -0.767292,0.37042 -1.640417,0.60854 -2.672291,0.60854 -1.243542,0 -2.010834,-0.39687 -2.010834,-1.40229 0,-1.13771 1.27,-1.50812 2.672292,-1.50812 0.767291,0 1.455208,0.13229 2.037291,0.3175 0,-0.84667 -1.084791,-0.89959 -1.666875,-0.89959 -0.582083,0 -1.269999,0.0529 -2.196041,0.3175 l -0.449792,-0.92604 c 0.899584,-0.29104 1.772709,-0.44979 2.69875,-0.44979 1.825625,0 2.8575,0.60854 2.883958,2.27542 m -1.296458,0.50271 c -0.449792,-0.1323 -1.058333,-0.26459 -1.878542,-0.26459 -0.952499,0 -1.534583,0.15875 -1.534583,0.60854 0,0.47625 0.423334,0.50271 1.084792,0.50271 0.687916,0 1.666875,-0.21166 2.301875,-0.50271 v -0.34395 z m 3.624792,1.71979 h -1.27 v -6.00604 h 1.27 z m 7.328958,-4.41854 h 1.85208 v 1.05833 h -1.85208 v 3.36021 h -1.29646 v -3.33375 h -1.16416 v -1.05834 h 1.16416 v -0.3175 c 0,-0.89958 0.52917,-1.32291 1.82563,-1.32291 0.44979,0 0.68791,0 1.32291,0.0794 v 0.89959 c -0.29104,-0.0265 -0.58208,-0.0265 -0.92604,-0.0265 -0.71437,-0.0529 -0.89958,0.10583 -0.92604,0.66146 m 4.10104,4.41854 h -1.27 v -6.00604 h 1.27 z m 0.92604,-2.19604 c 0,-1.61396 1.21709,-2.27542 3.06917,-2.27542 1.82562,0 3.06917,0.66146 3.06917,2.27542 0,1.61395 -1.24355,2.27541 -3.06917,2.27541 -1.82563,0 -3.06917,-0.66146 -3.06917,-2.27541 m 4.84188,0 c 0,-0.92605 -0.58209,-1.21709 -1.77271,-1.21709 -1.19063,0 -1.77271,0.29104 -1.77271,1.21709 0,0.92604 0.58208,1.21708 1.77271,1.21708 1.16417,-0.0265 1.77271,-0.3175 1.77271,-1.21708 m 11.43,-2.2225 -1.98438,4.41854 h -1.71979 l -1.29646,-3.06917 -1.29646,3.06917 h -1.71979 l -1.98437,-4.41854 h 1.42875 l 1.45521,3.41312 1.34937,-3.41312 h 1.53458 l 1.34938,3.41312 1.45521,-3.41312 z m 12.14437,-26.96105 v 6.35 h 6.35 v 6.35 h 6.35 v -12.7 z m 0,12.7 h -6.35 v 6.35 h 6.35 z"
       style="fill:#00aca9;stroke-width:0.264583" />
  </g>
</svg>
